# xmcd CD Database Entry
#
# Track frame offsets:
# 150
# 15579
# 26542
# 43317
# 57349
# 75155
# 89821
# 104157
# 116022
# 129556
# 150957
# 165739
# 183623
# 200934
# 217626
# 233095
# 252777
#
# Disc length: 3632 seconds
#
# Revision: 2
# Processed by: cddbd v1.4PL0 Copyright (c) Steve Scherf et al.
# Submitted via: tcd 2.0b
#
DISCID=e40e2e11
DTITLE=el recodo
DYEAR=1900
DGENRE=
TTITLE0=Pista 1
TTITLE1=der
TTITLE2=Pista 3
TTITLE3=Pista 4
TTITLE4=Pista 5
TTITLE5=Pista 6
TTITLE6=Pista 7
TTITLE7=Pista 8
TTITLE8=Pista 9
TTITLE9=Pista 10
TTITLE10=Pista 11
TTITLE11=Pista 12
TTITLE12=Pista 13
TTITLE13=Pista 14
TTITLE14=Pista 15
TTITLE15=Pista 16
TTITLE16=Pista 17
EXTD=
EXTT0=
EXTT1=
EXTT2=
EXTT3=
EXTT4=
EXTT5=
EXTT6=
EXTT7=
EXTT8=
EXTT9=
EXTT10=
EXTT11=
EXTT12=
EXTT13=
EXTT14=
EXTT15=
EXTT16=
PLAYORDER=
